<svg class="img-fluid" id="outputsvg" xmlns="http://www.w3.org/2000/svg" style="transform: matrix(0.856831, 0, 0, 0.856831, -5.08494, -8.11638); transform-origin: 50% 50%; cursor: move; max-height: none; transition: transform 200ms ease-in-out 0s;" width="518" height="518" viewBox="0 0 5180 5180"><g id="l9NqTEb1tCbohvwx0AoDVZ" fill="rgb(211,116,233)" style="transform: none;"><g style="transform: none;"><path id="p13j7s3IZ3" d="M0 2590 l0 -2590 2590 0 2590 0 0 2590 0 2590 -2590 0 -2590 0 0 -2590z m1326 1632 c33 -17 75 -47 92 -67 111 -126 116 -275 11 -404 -41 -51 -149 -108 -220 -117 -47 -5 -63 -2 -119 25 -185 87 -258 266 -174 422 29 53 116 139 140 139 8 0 14 4 14 8 0 16 67 30 130 28 49 -2 80 -11 126 -34z m2848 -21 c35 -16 82 -47 104 -70 42 -44 91 -135 99 -188 14 -83 -61 -231 -143 -283 -66 -41 -147 -63 -203 -55 -143 22 -267 154 -278 299 -5 53 -1 71 22 119 39 84 108 153 180 182 81 33 140 32 219 -4z m-1439 -771 c159 -12 388 -42 520 -69 l90 -19 -799 -1 c-440 0 -797 1 -795 4 3 2 29 8 59 14 30 5 105 18 165 29 94 17 194 28 410 45 90 8 218 6 350 -3z m995 -244 c399 -128 721 -339 831 -546 13 -25 27 -47 30 -50 8 -8 38 -110 44 -155 13 -88 -61 -278 -158 -406 -51 -69 -140 -164 -173 -186 -32 -20 -34 -92 -4 -130 28 -35 50 -118 43 -156 -3 -18 -19 -58 -36 -89 -34 -65 -90 -109 -170 -133 -43 -13 -54 -13 -95 1 -25 9 -62 27 -82 40 -41 28 -110 33 -131 8 -7 -8 -30 -24 -50 -35 -21 -10 -54 -29 -73 -42 -41 -29 -283 -149 -343 -171 -24 -9 -62 -23 -85 -32 -205 -78 -474 -124 -723 -124 -299 0 -522 43 -844 165 -79 29 -295 143 -380 200 -69 46 -90 55 -126 55 -33 0 -51 -6 -71 -25 -29 -27 -81 -45 -129 -45 -113 0 -231 107 -250 225 -7 44 23 143 50 165 9 8 15 30 15 59 0 40 -4 49 -30 66 -65 44 -246 266 -265 325 -4 11 -11 20 -16 20 -5 0 -9 6 -9 13 0 7 -9 32 -20 55 -28 59 -50 148 -50 207 1 198 184 411 482 561 93 47 116 56 273 111 220 77 102 71 1350 72 l1120 1 75 -24z"></path><path id="p1HE6xE3RW" d="M1491 2734 c-126 -44 -188 -125 -207 -264 -9 -65 13 -174 41 -208 12 -15 24 -34 28 -44 3 -9 32 -33 64 -55 57 -38 59 -38 169 -42 105 -3 114 -2 168 25 65 32 108 76 139 143 17 36 21 66 22 141 0 88 -2 100 -34 164 -26 53 -43 74 -80 97 -90 58 -217 75 -310 43z"></path><path id="pRoja5VJ6" d="M3402 2740 c-96 -20 -180 -100 -208 -197 -23 -78 -15 -202 15 -263 30 -58 75 -106 126 -133 48 -25 206 -36 272 -18 56 15 136 80 170 138 49 84 44 282 -9 349 -36 46 -87 89 -125 106 -49 22 -178 31 -241 18z"></path></g></g><g id="l1yG5CLedprAgrgbK8TVCHJ" fill="rgb(246,246,246)" style="transform: none;"><g style="transform: none;"><path id="p77oltaag" d="M1073 4277 c-18 -6 -33 -15 -33 -19 0 -4 -6 -8 -14 -8 -22 0 -104 -78 -132 -125 -35 -61 -45 -99 -45 -180 1 -145 71 -250 211 -317 60 -28 71 -30 146 -25 141 8 250 81 307 205 18 38 22 65 22 142 -1 83 -4 101 -28 147 -39 76 -82 120 -151 156 -54 27 -72 31 -156 33 -52 1 -110 -3 -127 -9z"></path><path id="p06Yr6eNO" d="M4009 4260 c-117 -20 -211 -92 -262 -203 -47 -101 -42 -200 16 -310 92 -176 323 -229 501 -117 56 36 121 132 137 206 36 160 -47 327 -195 394 -71 32 -132 41 -197 30z"></path><path id="pSL2VMg7X" d="M2355 3463 c-216 -17 -316 -28 -410 -45 -60 -11 -132 -24 -159 -29 -27 -4 -79 -17 -115 -28 -36 -11 -85 -25 -108 -31 -24 -6 -43 -13 -43 -15 0 -3 466 -5 1037 -5 570 0 1034 2 1031 5 -9 9 -229 63 -343 84 -302 56 -667 82 -890 64z"></path><path id="p1DGw5PbQl" d="M1320 3220 c-60 -17 -207 -66 -308 -104 -130 -49 -317 -160 -402 -240 -149 -139 -212 -260 -213 -411 0 -76 21 -170 53 -237 11 -23 20 -48 20 -55 0 -7 4 -13 9 -13 5 0 12 -9 16 -20 19 -59 200 -281 265 -325 33 -22 38 -46 15 -65 -8 -6 -24 -37 -36 -68 -27 -74 -23 -166 12 -233 30 -58 107 -125 159 -139 92 -25 207 -9 254 35 15 14 33 25 41 25 7 0 51 -25 96 -55 85 -57 301 -171 380 -200 333 -126 542 -165 874 -165 160 0 237 5 325 20 187 31 321 64 428 104 23 9 61 23 85 32 62 23 295 139 354 177 28 17 64 40 80 49 15 10 35 23 45 30 13 10 23 7 55 -14 47 -31 122 -58 162 -58 45 0 123 27 173 60 56 37 105 123 114 202 7 63 -13 149 -46 191 -26 33 -25 51 4 70 13 9 48 42 78 73 171 181 270 397 255 558 -6 57 -34 165 -47 176 -3 3 -16 25 -29 50 -110 207 -432 418 -831 546 l-75 24 -1150 -1 c-1074 -1 -1154 -2 -1215 -19z m356 -515 c89 -26 138 -65 175 -140 75 -153 22 -316 -127 -389 -52 -26 -65 -28 -139 -24 -75 4 -87 8 -139 42 -32 21 -60 45 -63 54 -4 10 -16 29 -28 43 -35 43 -48 132 -30 204 27 104 90 172 195 208 57 20 94 21 156 2z m1939 -14 c36 -16 87 -59 123 -105 51 -64 55 -210 8 -290 -33 -57 -113 -122 -169 -137 -58 -16 -163 -6 -212 19 -81 41 -142 133 -152 227 -14 139 85 277 219 305 55 11 132 3 183 -19z"></path></g></g></svg>
